<svg role="img" viewBox="0 0 96 96" xmlns="http://www.w3.org/2000/svg" id="Leetcode--Streamline-Simple-Icons" height="96" width="96">
  <desc>
    Leetcode Streamline Icon: https://streamlinehq.com
  </desc>
  <title>LeetCode</title>
  <path d="M53.932 0a5.496 5.496 0 0 0 -3.844 1.752L28.464 24.904l-15.416 16.504a21.064 21.064 0 0 0 -4.836 8.416 21.4 21.4 0 0 0 -0.5 2.052 22.108 22.108 0 0 0 0.248 9.448 23.32 23.32 0 0 0 1.396 4.068 23.752 23.752 0 0 0 5.084 7.272l17.108 16.772 0.156 0.152c8.992 8.66 23.408 8.532 32.252 -0.296l9.584 -9.568c2.16 -2.16 2.16 -5.656 0.012 -7.82a5.512 5.512 0 0 0 -7.804 -0.012l-9.584 9.568a12.084 12.084 0 0 1 -16.82 0.152l-0.08 -0.076 -17.104 -16.772c-2.608 -2.56 -3.888 -5.876 -3.792 -9.052a10.72 10.72 0 0 1 0.264 -2.092 10.18 10.18 0 0 1 2.476 -4.656L36.52 32.456c4.232 -4.536 12.816 -5.08 17.72 -1.112l14.004 11.324c2.372 1.92 5.844 1.548 7.76 -0.828a5.536 5.536 0 0 0 -0.828 -7.772l-14 -11.324c-3.2 -2.588 -7.064 -4.18 -11.096 -4.808l8.06 -8.632A5.536 5.536 0 0 0 53.932 0zm-11.464 51.26a5.52 5.52 0 0 0 -5.52 5.528 5.52 5.52 0 0 0 5.52 5.528H83.16a5.52 5.52 0 0 0 5.52 -5.528 5.52 5.52 0 0 0 -5.52 -5.528z" fill="#ffffff" stroke-width="4"></path>
</svg>
