<svg xmlns="http://www.w3.org/2000/svg" width="48" height="48" viewBox="0 0 48 48">
  <rect width="48" height="48" rx="8" fill="#FFA116"/>
  <path fill="#fff" d="M20.5 28.5h-7c-.8 0-1.5-.7-1.5-1.5s.7-1.5 1.5-1.5h7c.8 0 1.5.7 1.5 1.5s-.7 1.5-1.5 1.5z"/>
  <path fill="#B3B3B3" d="M13.5 18c-.8 0-1.5.7-1.5 1.5v9c0 .8.7 1.5 1.5 1.5h.5v-12h-.5zm7-3c-.8 0-1.5.7-1.5 1.5v15c0 .8.7 1.5 1.5 1.5s1.5-.7 1.5-1.5v-15c0-.8-.7-1.5-1.5-1.5z"/>
  <path fill="#fff" d="M28 21h8c.6 0 1-.4 1-1s-.4-1-1-1h-8c-.6 0-1 .4-1 1s.4 1 1 1zm0 4h5c.6 0 1-.4 1-1s-.4-1-1-1h-5c-.6 0-1 .4-1 1s.4 1 1 1zm0 4h8c.6 0 1-.4 1-1s-.4-1-1-1h-8c-.6 0-1 .4-1 1s.4 1 1 1z"/>
</svg>
